<svg width="86" height="80" viewBox="0 0 86 80" fill="none" xmlns="http://www.w3.org/2000/svg">
<path d="M24.998 1.38887C26.5109 0.699842 28.1444 0.390817 29.7031 0.499226C31.2618 0.607674 32.6807 1.12884 33.79 2.0002L82.1963 33.1799C83.3362 33.8413 84.2119 34.794 84.7354 35.9416C85.254 37.0789 85.4073 38.3677 85.1826 39.6809C84.6116 53.5205 78.9608 79.0002 59 79.0002C53 79.0002 54.4999 72.4879 51 72.5002C47.5 72.5126 43.5 79.0002 37.5 79.0002C31.5 79.0002 31.3295 73.5003 29 73.5002C26.0179 73.5002 28.9999 79.0002 15 79.0002C1.00011 79.0002 2.31448 72.5003 0 72.5002C2.3712 72.2038 7.08757 73.0667 10.3535 60.0441L19.4355 8.53829C19.5818 7.09499 20.1847 5.65349 21.1709 4.38594C22.1571 3.11845 23.4853 2.07791 24.998 1.38887ZM67 57.6359C65.3431 57.6359 64 60.4044 64 63.8186C64.0001 67.2326 65.3432 70.0002 67 70.0002C68.6568 70.0002 69.9999 67.2326 70 63.8186C70 60.4044 68.6569 57.6359 67 57.6359ZM60 36.0002C58.3431 36.0002 57 37.3433 57 39.0002V43.0002C57.0001 44.657 58.3432 46.0002 60 46.0002C61.6568 46.0002 62.9999 44.657 63 43.0002V39.0002C63 37.3951 61.7394 36.0844 60.1543 36.0041L60 36.0002ZM73 36.0002C71.3431 36.0002 70 37.3433 70 39.0002V43.0002C70.0001 44.657 71.3432 46.0002 73 46.0002C74.6568 46.0002 75.9999 44.657 76 43.0002V39.0002C76 37.3951 74.7394 36.0844 73.1543 36.0041L73 36.0002Z" fill="#48C774"/>
</svg>
