<svg width="86" height="94" viewBox="0 0 86 94" fill="none" xmlns="http://www.w3.org/2000/svg">
<g clip-path="url(#clip0_274_665)">
<path d="M30.5608 1.81291C29.3683 0.774934 27.8327 0.154398 26.1371 0.0252675C24.4415 -0.103863 22.6574 0.263859 20.9974 1.0846C19.3375 1.90534 17.8717 3.14448 16.7749 4.65431C15.6781 6.16414 14.9964 7.88098 14.8112 9.60016L1.71392 83.8786C1.29286 85.5978 1.36906 87.3146 1.93345 88.8244C2.49783 90.3343 3.52658 91.5734 4.89708 92.3941C6.26758 93.2149 7.92201 93.5826 9.66315 93.4535C11.4043 93.3243 13.1587 92.7038 14.7173 91.6658L79.9698 54.5266C81.4774 53.7388 82.8143 52.6041 83.8458 51.237C84.8774 49.8699 85.5671 48.3186 85.8456 46.7394C86.124 45.1602 85.9814 43.6089 85.432 42.2417C84.8825 40.8746 83.9458 39.74 82.7161 38.9521L30.5608 1.81291Z" fill="#48C774"/>
</g>
<defs>
<clipPath id="clip0_274_665">
<rect width="86" height="93.5439" fill="white"/>
</clipPath>
</defs>
</svg>
